<svg width="44" height="18" viewBox="0 0 44 18" fill="none" xmlns="http://www.w3.org/2000/svg">
<g clip-path="url(#clip0_2131_437)">
<path fill-rule="evenodd" clip-rule="evenodd" d="M6.34589 1.32L1.36736 7.0189C0.486717 8.186 0.486717 9.814 1.36736 10.9811L6.34589 16.68C6.96766 17.5072 7.96115 18 9 18V0C7.96115 0 6.96766 0.4928 6.34589 1.32ZM7.89366 9C7.89366 9.9108 7.1502 10.65 6.23415 10.65C5.3181 10.65 4.57464 9.9108 4.57464 9C4.57464 8.0892 5.3181 7.35 6.23415 7.35C7.1502 7.35 7.89366 8.0892 7.89366 9Z" fill="#FF2741"/>
</g>
<rect width="32" height="18" transform="translate(9)" fill="#FF2741"/>
<path d="M16.5029 7.5332C16.945 7.66992 17.3415 7.87272 17.6924 8.1416C18.0479 8.40592 18.3418 8.76139 18.5742 9.20801C18.8112 9.65462 18.9297 10.1514 18.9297 10.6982C18.9297 11.3682 18.7474 11.9788 18.3828 12.5303C18.0228 13.0817 17.5374 13.5124 16.9268 13.8223C16.3161 14.1322 15.6484 14.2871 14.9238 14.2871C13.8574 14.2871 12.7773 14.041 11.6836 13.5488L11.7451 11.5527C12.6748 12.0176 13.6706 12.25 14.7324 12.25C15.3568 12.25 15.8604 12.0791 16.2432 11.7373C16.6305 11.3955 16.8242 10.9899 16.8242 10.5205C16.8242 9.96908 16.5667 9.52246 16.0518 9.18066C15.5368 8.83887 14.7734 8.61328 13.7617 8.50391V8.01855L15.6143 5.46191H12.1416V3.56152H18.54V4.80566L16.5029 7.5332ZM23.3186 14.2871C22.6669 14.2871 22.0859 14.2188 21.5755 14.082C21.0651 13.9499 20.5569 13.7721 20.0511 13.5488L20.1126 11.5527C20.9648 12.013 21.9514 12.2432 23.0725 12.2432C23.4508 12.2432 23.7971 12.1816 24.1116 12.0586C24.4306 11.931 24.6949 11.7236 24.9046 11.4365C25.1188 11.1494 25.2259 10.8053 25.2259 10.4043C25.2259 9.86198 25.0413 9.42448 24.6721 9.0918C24.3076 8.75911 23.804 8.59277 23.1614 8.59277C22.7011 8.59277 22.2591 8.65658 21.8352 8.78418C21.416 8.91178 21.1175 9.05762 20.9397 9.22168L20.0511 8.66797L20.803 3.56152H26.6067V5.37988H22.4505L22.1429 7.37598C22.2841 7.23926 22.4892 7.12533 22.7581 7.03418C23.027 6.93848 23.3186 6.89062 23.6331 6.89062C24.7451 6.89062 25.6406 7.22331 26.3196 7.88867C26.9986 8.55404 27.3382 9.40397 27.3382 10.4385C27.3382 11.1722 27.1604 11.8353 26.805 12.4277C26.454 13.0156 25.971 13.4736 25.3557 13.8018C24.7451 14.1253 24.066 14.2871 23.3186 14.2871ZM31.7271 14.3486L30.23 13.5625L36.3755 3.53418L37.9 4.32031L31.7271 14.3486ZM30.6539 8.83203C29.8609 8.83203 29.1955 8.58138 28.6578 8.08008C28.12 7.57422 27.8511 6.95215 27.8511 6.21387C27.8511 5.46647 28.12 4.83984 28.6578 4.33398C29.1955 3.82812 29.8655 3.5752 30.6675 3.5752C31.4651 3.5752 32.1304 3.82585 32.6636 4.32715C33.1968 4.82845 33.4634 5.45508 33.4634 6.20703C33.4634 6.94987 33.1946 7.57422 32.6568 8.08008C32.1236 8.58138 31.456 8.83203 30.6539 8.83203ZM29.9429 7C30.1252 7.20964 30.3668 7.31445 30.6675 7.31445C30.9683 7.31445 31.2076 7.21191 31.3853 7.00684C31.5676 6.80176 31.6588 6.53971 31.6588 6.2207C31.6588 5.89258 31.5676 5.62142 31.3853 5.40723C31.203 5.18848 30.9615 5.0791 30.6607 5.0791C30.3599 5.0791 30.1184 5.18392 29.9361 5.39355C29.7584 5.60319 29.6695 5.87435 29.6695 6.20703C29.6695 6.52604 29.7606 6.79036 29.9429 7ZM37.483 14.1914C36.69 14.1914 36.0246 13.9408 35.4869 13.4395C34.9491 12.9336 34.6802 12.3115 34.6802 11.5732C34.6802 10.8258 34.9491 10.1992 35.4869 9.69336C36.0246 9.18294 36.6923 8.92773 37.4898 8.92773C38.2919 8.92773 38.9595 9.17839 39.4927 9.67969C40.0305 10.181 40.2994 10.8076 40.2994 11.5596C40.2994 12.307 40.0282 12.9336 39.4859 13.4395C38.9481 13.9408 38.2805 14.1914 37.483 14.1914ZM37.4966 12.6738C37.7974 12.6738 38.0367 12.5713 38.2144 12.3662C38.3967 12.1611 38.4879 11.8991 38.4879 11.5801C38.4879 11.2474 38.3967 10.974 38.2144 10.7598C38.0321 10.5456 37.7906 10.4385 37.4898 10.4385C37.1936 10.4385 36.9543 10.5433 36.772 10.7529C36.5943 10.9626 36.5054 11.2337 36.5054 11.5664C36.5054 11.8854 36.5966 12.1497 36.7789 12.3594C36.9612 12.569 37.2004 12.6738 37.4966 12.6738Z" fill="white"/>
<g clip-path="url(#clip1_2131_437)">
<path fill-rule="evenodd" clip-rule="evenodd" d="M41 0V18C42.4236 18 43.5814 17.0133 43.5814 15.8V2.2C43.5814 0.9867 42.4236 0 41 0Z" fill="#FF2741"/>
</g>
<defs>
<clipPath id="clip0_2131_437">
<rect width="9" height="18" fill="white"/>
</clipPath>
<clipPath id="clip1_2131_437">
<rect width="3" height="18" fill="white" transform="translate(41)"/>
</clipPath>
</defs>
</svg>
